<svg width="124" height="124" viewBox="0 0 124 124" fill="none" xmlns="http://www.w3.org/2000/svg">
<g filter="url(#filter0_d_131_98)">
<circle cx="62" cy="54" r="32" fill="url(#paint0_linear_131_98)"/>
<g clip-path="url(#clip0_131_98)">
<path d="M47.7284 53.7397C47.7277 56.2603 48.3863 58.7214 49.6386 60.8907L47.6086 68.3026L55.1938 66.3137C57.2917 67.4558 59.6423 68.0543 62.031 68.0544H62.0372C69.9227 68.0544 76.3417 61.6378 76.345 53.751C76.3465 49.9292 74.8596 46.3355 72.1579 43.6318C69.4568 40.9283 65.8643 39.4386 62.0367 39.4369C54.1503 39.4369 47.7317 45.8532 47.7284 53.7397Z" fill="url(#paint1_linear_131_98)"/>
<path d="M47.2177 53.735C47.2169 56.3463 47.8991 58.8955 49.1961 61.1424L47.0933 68.82L54.9504 66.7599C57.1152 67.9402 59.5527 68.5626 62.0329 68.5635H62.0393C70.2077 68.5635 76.8572 61.916 76.8607 53.7469C76.8621 49.7878 75.3216 46.0649 72.5235 43.2643C69.725 40.4641 66.0041 38.9208 62.0393 38.9192C53.8695 38.9192 47.2209 45.5657 47.2177 53.735ZM51.8969 60.7555L51.6035 60.2898C50.3702 58.3288 49.7193 56.0628 49.7202 53.7359C49.7228 46.9458 55.2488 41.4215 62.044 41.4215C65.3347 41.4229 68.4272 42.7057 70.7533 45.0331C73.0792 47.3608 74.3591 50.455 74.3583 53.7459C74.3552 60.536 68.8291 66.061 62.0393 66.061H62.0344C59.8236 66.0599 57.6554 65.4662 55.7644 64.3442L55.3144 64.0773L50.6519 65.2998L51.8969 60.7555Z" fill="url(#paint2_linear_131_98)"/>
<path d="M58.3348 47.5411C58.0574 46.9245 57.7654 46.912 57.5015 46.9012C57.2855 46.8919 57.0385 46.8926 56.7918 46.8926C56.5448 46.8926 56.1435 46.9855 55.8043 47.3558C55.4648 47.7265 54.5081 48.6224 54.5081 50.4443C54.5081 52.2663 55.8351 54.0272 56.0201 54.2746C56.2054 54.5214 58.5821 58.38 62.3463 59.8645C65.4747 61.0981 66.1113 60.8527 66.7903 60.7908C67.4693 60.7292 68.9814 59.8953 69.2899 59.0305C69.5986 58.1658 69.5986 57.4247 69.5061 57.2698C69.4135 57.1155 69.1665 57.0228 68.7962 56.8377C68.4258 56.6526 66.605 55.7565 66.2656 55.6329C65.9261 55.5095 65.6792 55.4478 65.4322 55.8186C65.1853 56.1889 64.4761 57.0228 64.2599 57.2698C64.044 57.5174 63.8278 57.5482 63.4576 57.3629C63.087 57.1771 61.8943 56.7865 60.4793 55.525C59.3784 54.5434 58.6351 53.3312 58.4191 52.9604C58.2031 52.5901 58.396 52.3895 58.5817 52.2049C58.7481 52.039 58.9521 51.7725 59.1375 51.5563C59.3221 51.34 59.3838 51.1857 59.5072 50.9388C59.6308 50.6915 59.569 50.4753 59.4765 50.29C59.3838 50.1048 58.6641 48.2733 58.3348 47.5411Z" fill="white"/>
</g>
</g>
<defs>
<filter id="filter0_d_131_98" x="0" y="0" width="124" height="124" filterUnits="userSpaceOnUse" color-interpolation-filters="sRGB">
<feFlood flood-opacity="0" result="BackgroundImageFix"/>
<feColorMatrix in="SourceAlpha" type="matrix" values="0 0 0 0 0 0 0 0 0 0 0 0 0 0 0 0 0 0 127 0" result="hardAlpha"/>
<feOffset dy="8"/>
<feGaussianBlur stdDeviation="15"/>
<feComposite in2="hardAlpha" operator="out"/>
<feColorMatrix type="matrix" values="0 0 0 0 0 0 0 0 0 0 0 0 0 0 0 0 0 0 0.35 0"/>
<feBlend mode="normal" in2="BackgroundImageFix" result="effect1_dropShadow_131_98"/>
<feBlend mode="normal" in="SourceGraphic" in2="effect1_dropShadow_131_98" result="shape"/>
</filter>
<linearGradient id="paint0_linear_131_98" x1="3230" y1="6422" x2="3230" y2="22" gradientUnits="userSpaceOnUse">
<stop stop-color="#1FAF38"/>
<stop offset="1" stop-color="#60D669"/>
</linearGradient>
<linearGradient id="paint1_linear_131_98" x1="1484.43" y1="2926.01" x2="1484.43" y2="39.4369" gradientUnits="userSpaceOnUse">
<stop stop-color="#1FAF38"/>
<stop offset="1" stop-color="#60D669"/>
</linearGradient>
<linearGradient id="paint2_linear_131_98" x1="1535.47" y1="3029" x2="1535.47" y2="38.9192" gradientUnits="userSpaceOnUse">
<stop stop-color="#F9F9F9"/>
<stop offset="1" stop-color="white"/>
</linearGradient>
<clipPath id="clip0_131_98">
<rect width="29.7674" height="30" fill="white" transform="translate(47.0933 38.9192)"/>
</clipPath>
</defs>
</svg>
